<?xml version="1.0" encoding="utf-8" standalone="no"?>
<!DOCTYPE svg PUBLIC "-//W3C//DTD SVG 1.1//EN"
  "http://www.w3.org/Graphics/SVG/1.1/DTD/svg11.dtd">
<svg xmlns:xlink="http://www.w3.org/1999/xlink" width="1072.482812pt" height="357.638125pt" viewBox="0 0 1072.482812 357.638125" xmlns="http://www.w3.org/2000/svg" version="1.1">
 <metadata>
  <rdf:RDF xmlns:dc="http://purl.org/dc/elements/1.1/" xmlns:cc="http://creativecommons.org/ns#" xmlns:rdf="http://www.w3.org/1999/02/22-rdf-syntax-ns#">
   <cc:Work>
    <dc:type rdf:resource="http://purl.org/dc/dcmitype/StillImage"/>
    <dc:date>2024-11-07T10:21:37.475528</dc:date>
    <dc:format>image/svg+xml</dc:format>
    <dc:creator>
     <cc:Agent>
      <dc:title>Matplotlib v3.9.2, https://matplotlib.org/</dc:title>
     </cc:Agent>
    </dc:creator>
   </cc:Work>
  </rdf:RDF>
 </metadata>
 <defs>
  <style type="text/css">*{stroke-linejoin: round; stroke-linecap: butt}</style>
 </defs>
 <g id="figure_1">
  <g id="patch_1">
   <path d="M 0 357.638125 
L 1072.482812 357.638125 
L 1072.482812 0 
L 0 0 
z
" style="fill: #ffffff"/>
  </g>
  <g id="axes_1">
   <g id="patch_2">
    <path d="M 81.782813 251.166278 
L 400.082813 251.166278 
L 400.082813 22.318125 
L 81.782813 22.318125 
z
" style="fill: #ffffff"/>
   </g>
   <g id="patch_3">
    <path d="M 96.250994 251.166278 
L 127.254241 251.166278 
L 127.254241 207.576153 
L 96.250994 207.576153 
z
" clip-path="url(#pa049f4832b)" style="fill: #ac89cf"/>
   </g>
   <g id="patch_4">
    <path d="M 147.923072 251.166278 
L 178.926319 251.166278 
L 178.926319 207.576153 
L 147.923072 207.576153 
z
" clip-path="url(#pa049f4832b)" style="fill: #ac89cf"/>
   </g>
   <g id="patch_5">
    <path d="M 199.59515 251.166278 
L 230.598397 251.166278 
L 230.598397 207.576153 
L 199.59515 207.576153 
z
" clip-path="url(#pa049f4832b)" style="fill: #5c20a6"/>
   </g>
   <g id="patch_6">
    <path d="M 251.267228 251.166278 
L 282.270475 251.166278 
L 282.270475 207.576153 
L 251.267228 207.576153 
z
" clip-path="url(#pa049f4832b)" style="fill: #ac89cf"/>
   </g>
   <g id="patch_7">
    <path d="M 302.939306 251.166278 
L 333.942553 251.166278 
L 333.942553 207.576153 
L 302.939306 207.576153 
z
" clip-path="url(#pa049f4832b)" style="fill: #ac89cf"/>
   </g>
   <g id="patch_8">
    <path d="M 354.611384 251.166278 
L 385.614631 251.166278 
L 385.614631 207.576153 
L 354.611384 207.576153 
z
" clip-path="url(#pa049f4832b)" style="fill: #ac89cf"/>
   </g>
   <g id="patch_9">
    <path d="M 96.250994 207.576153 
L 127.254241 207.576153 
L 127.254241 163.986029 
L 96.250994 163.986029 
z
" clip-path="url(#pa049f4832b)" style="fill: #ac89cf"/>
   </g>
   <g id="patch_10">
    <path d="M 147.923072 207.576153 
L 178.926319 207.576153 
L 178.926319 163.986029 
L 147.923072 163.986029 
z
" clip-path="url(#pa049f4832b)" style="fill: #ac89cf"/>
   </g>
   <g id="patch_11">
    <path d="M 199.59515 207.576153 
L 230.598397 207.576153 
L 230.598397 163.986029 
L 199.59515 163.986029 
z
" clip-path="url(#pa049f4832b)" style="fill: #ac89cf"/>
   </g>
   <g id="patch_12">
    <path d="M 251.267228 207.576153 
L 282.270475 207.576153 
L 282.270475 163.986029 
L 251.267228 163.986029 
z
" clip-path="url(#pa049f4832b)" style="fill: #ac89cf"/>
   </g>
   <g id="patch_13">
    <path d="M 302.939306 207.576153 
L 333.942553 207.576153 
L 333.942553 163.986029 
L 302.939306 163.986029 
z
" clip-path="url(#pa049f4832b)" style="fill: #ac89cf"/>
   </g>
   <g id="patch_14">
    <path d="M 354.611384 207.576153 
L 385.614631 207.576153 
L 385.614631 163.986029 
L 354.611384 163.986029 
z
" clip-path="url(#pa049f4832b)" style="fill: #5c20a6"/>
   </g>
   <g id="patch_15">
    <path d="M 96.250994 163.986029 
L 127.254241 163.986029 
L 127.254241 120.395905 
L 96.250994 120.395905 
z
" clip-path="url(#pa049f4832b)" style="fill: #ac89cf"/>
   </g>
   <g id="patch_16">
    <path d="M 147.923072 163.986029 
L 178.926319 163.986029 
L 178.926319 120.395905 
L 147.923072 120.395905 
z
" clip-path="url(#pa049f4832b)" style="fill: #ac89cf"/>
   </g>
   <g id="patch_17">
    <path d="M 199.59515 163.986029 
L 230.598397 163.986029 
L 230.598397 120.395905 
L 199.59515 120.395905 
z
" clip-path="url(#pa049f4832b)" style="fill: #5c20a6"/>
   </g>
   <g id="patch_18">
    <path d="M 251.267228 163.986029 
L 282.270475 163.986029 
L 282.270475 120.395905 
L 251.267228 120.395905 
z
" clip-path="url(#pa049f4832b)" style="fill: #ac89cf"/>
   </g>
   <g id="patch_19">
    <path d="M 302.939306 163.986029 
L 333.942553 163.986029 
L 333.942553 120.395905 
L 302.939306 120.395905 
z
" clip-path="url(#pa049f4832b)" style="fill: #ac89cf"/>
   </g>
   <g id="patch_20">
    <path d="M 354.611384 163.986029 
L 385.614631 163.986029 
L 385.614631 120.395905 
L 354.611384 120.395905 
z
" clip-path="url(#pa049f4832b)" style="fill: #ac89cf"/>
   </g>
   <g id="patch_21">
    <path d="M 96.250994 120.395905 
L 127.254241 120.395905 
L 127.254241 76.80578 
L 96.250994 76.80578 
z
" clip-path="url(#pa049f4832b)" style="fill: #ac89cf"/>
   </g>
   <g id="patch_22">
    <path d="M 147.923072 120.395905 
L 178.926319 120.395905 
L 178.926319 76.80578 
L 147.923072 76.80578 
z
" clip-path="url(#pa049f4832b)" style="fill: #ac89cf"/>
   </g>
   <g id="patch_23">
    <path d="M 199.59515 120.395905 
L 230.598397 120.395905 
L 230.598397 76.80578 
L 199.59515 76.80578 
z
" clip-path="url(#pa049f4832b)" style="fill: #5c20a6"/>
   </g>
   <g id="patch_24">
    <path d="M 251.267228 120.395905 
L 282.270475 120.395905 
L 282.270475 76.80578 
L 251.267228 76.80578 
z
" clip-path="url(#pa049f4832b)" style="fill: #ac89cf"/>
   </g>
   <g id="patch_25">
    <path d="M 302.939306 120.395905 
L 333.942553 120.395905 
L 333.942553 76.80578 
L 302.939306 76.80578 
z
" clip-path="url(#pa049f4832b)" style="fill: #ac89cf"/>
   </g>
   <g id="patch_26">
    <path d="M 354.611384 120.395905 
L 385.614631 120.395905 
L 385.614631 76.80578 
L 354.611384 76.80578 
z
" clip-path="url(#pa049f4832b)" style="fill: #5c20a6"/>
   </g>
   <g id="patch_27">
    <path d="M 96.250994 76.80578 
L 127.254241 76.80578 
L 127.254241 33.215656 
L 96.250994 33.215656 
z
" clip-path="url(#pa049f4832b)" style="fill: #ac89cf"/>
   </g>
   <g id="patch_28">
    <path d="M 147.923072 76.80578 
L 178.926319 76.80578 
L 178.926319 33.215656 
L 147.923072 33.215656 
z
" clip-path="url(#pa049f4832b)" style="fill: #ac89cf"/>
   </g>
   <g id="patch_29">
    <path d="M 199.59515 76.80578 
L 230.598397 76.80578 
L 230.598397 33.215656 
L 199.59515 33.215656 
z
" clip-path="url(#pa049f4832b)" style="fill: #5c20a6"/>
   </g>
   <g id="patch_30">
    <path d="M 251.267228 76.80578 
L 282.270475 76.80578 
L 282.270475 33.215656 
L 251.267228 33.215656 
z
" clip-path="url(#pa049f4832b)" style="fill: #5c20a6"/>
   </g>
   <g id="patch_31">
    <path d="M 302.939306 76.80578 
L 333.942553 76.80578 
L 333.942553 33.215656 
L 302.939306 33.215656 
z
" clip-path="url(#pa049f4832b)" style="fill: #ac89cf"/>
   </g>
   <g id="patch_32">
    <path d="M 354.611384 76.80578 
L 385.614631 76.80578 
L 385.614631 33.215656 
L 354.611384 33.215656 
z
" clip-path="url(#pa049f4832b)" style="fill: #ac89cf"/>
   </g>
   <g id="matplotlib.axis_1">
    <g id="xtick_1">
     <g id="line2d_1">
      <defs>
       <path id="mb52b0a411f" d="M 0 0 
L 0 3.5 
" style="stroke: #000000; stroke-width: 0.8"/>
      </defs>
      <g>
       <use xlink:href="#mb52b0a411f" x="111.752618" y="251.166278" style="stroke: #000000; stroke-width: 0.8"/>
      </g>
     </g>
     <g id="text_1">
      <!-- 1.1 -->
      <g transform="translate(99.036849 274.784392) rotate(-45) scale(0.1 -0.1)">
       <defs>
        <path id="DejaVuSans-31" d="M 794 531 
L 1825 531 
L 1825 4091 
L 703 3866 
L 703 4441 
L 1819 4666 
L 2450 4666 
L 2450 531 
L 3481 531 
L 3481 0 
L 794 0 
L 794 531 
z
" transform="scale(0.015625)"/>
        <path id="DejaVuSans-2e" d="M 684 794 
L 1344 794 
L 1344 0 
L 684 0 
L 684 794 
z
" transform="scale(0.015625)"/>
       </defs>
       <use xlink:href="#DejaVuSans-31"/>
       <use xlink:href="#DejaVuSans-2e" x="63.623047"/>
       <use xlink:href="#DejaVuSans-31" x="95.410156"/>
      </g>
     </g>
    </g>
    <g id="xtick_2">
     <g id="line2d_2">
      <g>
       <use xlink:href="#mb52b0a411f" x="163.424696" y="251.166278" style="stroke: #000000; stroke-width: 0.8"/>
      </g>
     </g>
     <g id="text_2">
      <!-- 1.2 -->
      <g transform="translate(150.708927 274.784392) rotate(-45) scale(0.1 -0.1)">
       <defs>
        <path id="DejaVuSans-32" d="M 1228 531 
L 3431 531 
L 3431 0 
L 469 0 
L 469 531 
Q 828 903 1448 1529 
Q 2069 2156 2228 2338 
Q 2531 2678 2651 2914 
Q 2772 3150 2772 3378 
Q 2772 3750 2511 3984 
Q 2250 4219 1831 4219 
Q 1534 4219 1204 4116 
Q 875 4013 500 3803 
L 500 4441 
Q 881 4594 1212 4672 
Q 1544 4750 1819 4750 
Q 2544 4750 2975 4387 
Q 3406 4025 3406 3419 
Q 3406 3131 3298 2873 
Q 3191 2616 2906 2266 
Q 2828 2175 2409 1742 
Q 1991 1309 1228 531 
z
" transform="scale(0.015625)"/>
       </defs>
       <use xlink:href="#DejaVuSans-31"/>
       <use xlink:href="#DejaVuSans-2e" x="63.623047"/>
       <use xlink:href="#DejaVuSans-32" x="95.410156"/>
      </g>
     </g>
    </g>
    <g id="xtick_3">
     <g id="line2d_3">
      <g>
       <use xlink:href="#mb52b0a411f" x="215.096774" y="251.166278" style="stroke: #000000; stroke-width: 0.8"/>
      </g>
     </g>
     <g id="text_3">
      <!-- 1.3 -->
      <g transform="translate(202.381005 274.784392) rotate(-45) scale(0.1 -0.1)">
       <defs>
        <path id="DejaVuSans-33" d="M 2597 2516 
Q 3050 2419 3304 2112 
Q 3559 1806 3559 1356 
Q 3559 666 3084 287 
Q 2609 -91 1734 -91 
Q 1441 -91 1130 -33 
Q 819 25 488 141 
L 488 750 
Q 750 597 1062 519 
Q 1375 441 1716 441 
Q 2309 441 2620 675 
Q 2931 909 2931 1356 
Q 2931 1769 2642 2001 
Q 2353 2234 1838 2234 
L 1294 2234 
L 1294 2753 
L 1863 2753 
Q 2328 2753 2575 2939 
Q 2822 3125 2822 3475 
Q 2822 3834 2567 4026 
Q 2313 4219 1838 4219 
Q 1578 4219 1281 4162 
Q 984 4106 628 3988 
L 628 4550 
Q 988 4650 1302 4700 
Q 1616 4750 1894 4750 
Q 2613 4750 3031 4423 
Q 3450 4097 3450 3541 
Q 3450 3153 3228 2886 
Q 3006 2619 2597 2516 
z
" transform="scale(0.015625)"/>
       </defs>
       <use xlink:href="#DejaVuSans-31"/>
       <use xlink:href="#DejaVuSans-2e" x="63.623047"/>
       <use xlink:href="#DejaVuSans-33" x="95.410156"/>
      </g>
     </g>
    </g>
    <g id="xtick_4">
     <g id="line2d_4">
      <g>
       <use xlink:href="#mb52b0a411f" x="266.768851" y="251.166278" style="stroke: #000000; stroke-width: 0.8"/>
      </g>
     </g>
     <g id="text_4">
      <!-- 1.4 -->
      <g transform="translate(254.053083 274.784392) rotate(-45) scale(0.1 -0.1)">
       <defs>
        <path id="DejaVuSans-34" d="M 2419 4116 
L 825 1625 
L 2419 1625 
L 2419 4116 
z
M 2253 4666 
L 3047 4666 
L 3047 1625 
L 3713 1625 
L 3713 1100 
L 3047 1100 
L 3047 0 
L 2419 0 
L 2419 1100 
L 313 1100 
L 313 1709 
L 2253 4666 
z
" transform="scale(0.015625)"/>
       </defs>
       <use xlink:href="#DejaVuSans-31"/>
       <use xlink:href="#DejaVuSans-2e" x="63.623047"/>
       <use xlink:href="#DejaVuSans-34" x="95.410156"/>
      </g>
     </g>
    </g>
    <g id="xtick_5">
     <g id="line2d_5">
      <g>
       <use xlink:href="#mb52b0a411f" x="318.440929" y="251.166278" style="stroke: #000000; stroke-width: 0.8"/>
      </g>
     </g>
     <g id="text_5">
      <!-- 1.5 -->
      <g transform="translate(305.725161 274.784392) rotate(-45) scale(0.1 -0.1)">
       <defs>
        <path id="DejaVuSans-35" d="M 691 4666 
L 3169 4666 
L 3169 4134 
L 1269 4134 
L 1269 2991 
Q 1406 3038 1543 3061 
Q 1681 3084 1819 3084 
Q 2600 3084 3056 2656 
Q 3513 2228 3513 1497 
Q 3513 744 3044 326 
Q 2575 -91 1722 -91 
Q 1428 -91 1123 -41 
Q 819 9 494 109 
L 494 744 
Q 775 591 1075 516 
Q 1375 441 1709 441 
Q 2250 441 2565 725 
Q 2881 1009 2881 1497 
Q 2881 1984 2565 2268 
Q 2250 2553 1709 2553 
Q 1456 2553 1204 2497 
Q 953 2441 691 2322 
L 691 4666 
z
" transform="scale(0.015625)"/>
       </defs>
       <use xlink:href="#DejaVuSans-31"/>
       <use xlink:href="#DejaVuSans-2e" x="63.623047"/>
       <use xlink:href="#DejaVuSans-35" x="95.410156"/>
      </g>
     </g>
    </g>
    <g id="xtick_6">
     <g id="line2d_6">
      <g>
       <use xlink:href="#mb52b0a411f" x="370.113007" y="251.166278" style="stroke: #000000; stroke-width: 0.8"/>
      </g>
     </g>
     <g id="text_6">
      <!-- 1.6 -->
      <g transform="translate(357.397239 274.784392) rotate(-45) scale(0.1 -0.1)">
       <defs>
        <path id="DejaVuSans-36" d="M 2113 2584 
Q 1688 2584 1439 2293 
Q 1191 2003 1191 1497 
Q 1191 994 1439 701 
Q 1688 409 2113 409 
Q 2538 409 2786 701 
Q 3034 994 3034 1497 
Q 3034 2003 2786 2293 
Q 2538 2584 2113 2584 
z
M 3366 4563 
L 3366 3988 
Q 3128 4100 2886 4159 
Q 2644 4219 2406 4219 
Q 1781 4219 1451 3797 
Q 1122 3375 1075 2522 
Q 1259 2794 1537 2939 
Q 1816 3084 2150 3084 
Q 2853 3084 3261 2657 
Q 3669 2231 3669 1497 
Q 3669 778 3244 343 
Q 2819 -91 2113 -91 
Q 1303 -91 875 529 
Q 447 1150 447 2328 
Q 447 3434 972 4092 
Q 1497 4750 2381 4750 
Q 2619 4750 2861 4703 
Q 3103 4656 3366 4563 
z
" transform="scale(0.015625)"/>
       </defs>
       <use xlink:href="#DejaVuSans-31"/>
       <use xlink:href="#DejaVuSans-2e" x="63.623047"/>
       <use xlink:href="#DejaVuSans-36" x="95.410156"/>
      </g>
     </g>
    </g>
    <g id="text_7">
     <!-- Subtarefas -->
     <g transform="translate(213.942969 287.85339) scale(0.1 -0.1)">
      <defs>
       <path id="DejaVuSans-53" d="M 3425 4513 
L 3425 3897 
Q 3066 4069 2747 4153 
Q 2428 4238 2131 4238 
Q 1616 4238 1336 4038 
Q 1056 3838 1056 3469 
Q 1056 3159 1242 3001 
Q 1428 2844 1947 2747 
L 2328 2669 
Q 3034 2534 3370 2195 
Q 3706 1856 3706 1288 
Q 3706 609 3251 259 
Q 2797 -91 1919 -91 
Q 1588 -91 1214 -16 
Q 841 59 441 206 
L 441 856 
Q 825 641 1194 531 
Q 1563 422 1919 422 
Q 2459 422 2753 634 
Q 3047 847 3047 1241 
Q 3047 1584 2836 1778 
Q 2625 1972 2144 2069 
L 1759 2144 
Q 1053 2284 737 2584 
Q 422 2884 422 3419 
Q 422 4038 858 4394 
Q 1294 4750 2059 4750 
Q 2388 4750 2728 4690 
Q 3069 4631 3425 4513 
z
" transform="scale(0.015625)"/>
       <path id="DejaVuSans-75" d="M 544 1381 
L 544 3500 
L 1119 3500 
L 1119 1403 
Q 1119 906 1312 657 
Q 1506 409 1894 409 
Q 2359 409 2629 706 
Q 2900 1003 2900 1516 
L 2900 3500 
L 3475 3500 
L 3475 0 
L 2900 0 
L 2900 538 
Q 2691 219 2414 64 
Q 2138 -91 1772 -91 
Q 1169 -91 856 284 
Q 544 659 544 1381 
z
M 1991 3584 
L 1991 3584 
z
" transform="scale(0.015625)"/>
       <path id="DejaVuSans-62" d="M 3116 1747 
Q 3116 2381 2855 2742 
Q 2594 3103 2138 3103 
Q 1681 3103 1420 2742 
Q 1159 2381 1159 1747 
Q 1159 1113 1420 752 
Q 1681 391 2138 391 
Q 2594 391 2855 752 
Q 3116 1113 3116 1747 
z
M 1159 2969 
Q 1341 3281 1617 3432 
Q 1894 3584 2278 3584 
Q 2916 3584 3314 3078 
Q 3713 2572 3713 1747 
Q 3713 922 3314 415 
Q 2916 -91 2278 -91 
Q 1894 -91 1617 61 
Q 1341 213 1159 525 
L 1159 0 
L 581 0 
L 581 4863 
L 1159 4863 
L 1159 2969 
z
" transform="scale(0.015625)"/>
       <path id="DejaVuSans-74" d="M 1172 4494 
L 1172 3500 
L 2356 3500 
L 2356 3053 
L 1172 3053 
L 1172 1153 
Q 1172 725 1289 603 
Q 1406 481 1766 481 
L 2356 481 
L 2356 0 
L 1766 0 
Q 1100 0 847 248 
Q 594 497 594 1153 
L 594 3053 
L 172 3053 
L 172 3500 
L 594 3500 
L 594 4494 
L 1172 4494 
z
" transform="scale(0.015625)"/>
       <path id="DejaVuSans-61" d="M 2194 1759 
Q 1497 1759 1228 1600 
Q 959 1441 959 1056 
Q 959 750 1161 570 
Q 1363 391 1709 391 
Q 2188 391 2477 730 
Q 2766 1069 2766 1631 
L 2766 1759 
L 2194 1759 
z
M 3341 1997 
L 3341 0 
L 2766 0 
L 2766 531 
Q 2569 213 2275 61 
Q 1981 -91 1556 -91 
Q 1019 -91 701 211 
Q 384 513 384 1019 
Q 384 1609 779 1909 
Q 1175 2209 1959 2209 
L 2766 2209 
L 2766 2266 
Q 2766 2663 2505 2880 
Q 2244 3097 1772 3097 
Q 1472 3097 1187 3025 
Q 903 2953 641 2809 
L 641 3341 
Q 956 3463 1253 3523 
Q 1550 3584 1831 3584 
Q 2591 3584 2966 3190 
Q 3341 2797 3341 1997 
z
" transform="scale(0.015625)"/>
       <path id="DejaVuSans-72" d="M 2631 2963 
Q 2534 3019 2420 3045 
Q 2306 3072 2169 3072 
Q 1681 3072 1420 2755 
Q 1159 2438 1159 1844 
L 1159 0 
L 581 0 
L 581 3500 
L 1159 3500 
L 1159 2956 
Q 1341 3275 1631 3429 
Q 1922 3584 2338 3584 
Q 2397 3584 2469 3576 
Q 2541 3569 2628 3553 
L 2631 2963 
z
" transform="scale(0.015625)"/>
       <path id="DejaVuSans-65" d="M 3597 1894 
L 3597 1613 
L 953 1613 
Q 991 1019 1311 708 
Q 1631 397 2203 397 
Q 2534 397 2845 478 
Q 3156 559 3463 722 
L 3463 178 
Q 3153 47 2828 -22 
Q 2503 -91 2169 -91 
Q 1331 -91 842 396 
Q 353 884 353 1716 
Q 353 2575 817 3079 
Q 1281 3584 2069 3584 
Q 2775 3584 3186 3129 
Q 3597 2675 3597 1894 
z
M 3022 2063 
Q 3016 2534 2758 2815 
Q 2500 3097 2075 3097 
Q 1594 3097 1305 2825 
Q 1016 2553 972 2059 
L 3022 2063 
z
" transform="scale(0.015625)"/>
       <path id="DejaVuSans-66" d="M 2375 4863 
L 2375 4384 
L 1825 4384 
Q 1516 4384 1395 4259 
Q 1275 4134 1275 3809 
L 1275 3500 
L 2222 3500 
L 2222 3053 
L 1275 3053 
L 1275 0 
L 697 0 
L 697 3053 
L 147 3053 
L 147 3500 
L 697 3500 
L 697 3744 
Q 697 4328 969 4595 
Q 1241 4863 1831 4863 
L 2375 4863 
z
" transform="scale(0.015625)"/>
       <path id="DejaVuSans-73" d="M 2834 3397 
L 2834 2853 
Q 2591 2978 2328 3040 
Q 2066 3103 1784 3103 
Q 1356 3103 1142 2972 
Q 928 2841 928 2578 
Q 928 2378 1081 2264 
Q 1234 2150 1697 2047 
L 1894 2003 
Q 2506 1872 2764 1633 
Q 3022 1394 3022 966 
Q 3022 478 2636 193 
Q 2250 -91 1575 -91 
Q 1294 -91 989 -36 
Q 684 19 347 128 
L 347 722 
Q 666 556 975 473 
Q 1284 391 1588 391 
Q 1994 391 2212 530 
Q 2431 669 2431 922 
Q 2431 1156 2273 1281 
Q 2116 1406 1581 1522 
L 1381 1569 
Q 847 1681 609 1914 
Q 372 2147 372 2553 
Q 372 3047 722 3315 
Q 1072 3584 1716 3584 
Q 2034 3584 2315 3537 
Q 2597 3491 2834 3397 
z
" transform="scale(0.015625)"/>
      </defs>
      <use xlink:href="#DejaVuSans-53"/>
      <use xlink:href="#DejaVuSans-75" x="63.476562"/>
      <use xlink:href="#DejaVuSans-62" x="126.855469"/>
      <use xlink:href="#DejaVuSans-74" x="190.332031"/>
      <use xlink:href="#DejaVuSans-61" x="229.541016"/>
      <use xlink:href="#DejaVuSans-72" x="290.820312"/>
      <use xlink:href="#DejaVuSans-65" x="329.683594"/>
      <use xlink:href="#DejaVuSans-66" x="391.207031"/>
      <use xlink:href="#DejaVuSans-61" x="426.412109"/>
      <use xlink:href="#DejaVuSans-73" x="487.691406"/>
     </g>
    </g>
   </g>
   <g id="matplotlib.axis_2">
    <g id="ytick_1">
     <g id="line2d_7">
      <defs>
       <path id="m416ecd32e3" d="M 0 0 
L -3.5 0 
" style="stroke: #000000; stroke-width: 0.8"/>
      </defs>
      <g>
       <use xlink:href="#m416ecd32e3" x="81.782813" y="229.371215" style="stroke: #000000; stroke-width: 0.8"/>
      </g>
     </g>
     <g id="text_8">
      <!-- Usuário 01 -->
      <g transform="translate(20.878125 233.170434) scale(0.1 -0.1)">
       <defs>
        <path id="DejaVuSans-55" d="M 556 4666 
L 1191 4666 
L 1191 1831 
Q 1191 1081 1462 751 
Q 1734 422 2344 422 
Q 2950 422 3222 751 
Q 3494 1081 3494 1831 
L 3494 4666 
L 4128 4666 
L 4128 1753 
Q 4128 841 3676 375 
Q 3225 -91 2344 -91 
Q 1459 -91 1007 375 
Q 556 841 556 1753 
L 556 4666 
z
" transform="scale(0.015625)"/>
        <path id="DejaVuSans-e1" d="M 2194 1759 
Q 1497 1759 1228 1600 
Q 959 1441 959 1056 
Q 959 750 1161 570 
Q 1363 391 1709 391 
Q 2188 391 2477 730 
Q 2766 1069 2766 1631 
L 2766 1759 
L 2194 1759 
z
M 3341 1997 
L 3341 0 
L 2766 0 
L 2766 531 
Q 2569 213 2275 61 
Q 1981 -91 1556 -91 
Q 1019 -91 701 211 
Q 384 513 384 1019 
Q 384 1609 779 1909 
Q 1175 2209 1959 2209 
L 2766 2209 
L 2766 2266 
Q 2766 2663 2505 2880 
Q 2244 3097 1772 3097 
Q 1472 3097 1187 3025 
Q 903 2953 641 2809 
L 641 3341 
Q 956 3463 1253 3523 
Q 1550 3584 1831 3584 
Q 2591 3584 2966 3190 
Q 3341 2797 3341 1997 
z
M 2290 5119 
L 2912 5119 
L 1894 3944 
L 1415 3944 
L 2290 5119 
z
" transform="scale(0.015625)"/>
        <path id="DejaVuSans-69" d="M 603 3500 
L 1178 3500 
L 1178 0 
L 603 0 
L 603 3500 
z
M 603 4863 
L 1178 4863 
L 1178 4134 
L 603 4134 
L 603 4863 
z
" transform="scale(0.015625)"/>
        <path id="DejaVuSans-6f" d="M 1959 3097 
Q 1497 3097 1228 2736 
Q 959 2375 959 1747 
Q 959 1119 1226 758 
Q 1494 397 1959 397 
Q 2419 397 2687 759 
Q 2956 1122 2956 1747 
Q 2956 2369 2687 2733 
Q 2419 3097 1959 3097 
z
M 1959 3584 
Q 2709 3584 3137 3096 
Q 3566 2609 3566 1747 
Q 3566 888 3137 398 
Q 2709 -91 1959 -91 
Q 1206 -91 779 398 
Q 353 888 353 1747 
Q 353 2609 779 3096 
Q 1206 3584 1959 3584 
z
" transform="scale(0.015625)"/>
        <path id="DejaVuSans-20" transform="scale(0.015625)"/>
        <path id="DejaVuSans-30" d="M 2034 4250 
Q 1547 4250 1301 3770 
Q 1056 3291 1056 2328 
Q 1056 1369 1301 889 
Q 1547 409 2034 409 
Q 2525 409 2770 889 
Q 3016 1369 3016 2328 
Q 3016 3291 2770 3770 
Q 2525 4250 2034 4250 
z
M 2034 4750 
Q 2819 4750 3233 4129 
Q 3647 3509 3647 2328 
Q 3647 1150 3233 529 
Q 2819 -91 2034 -91 
Q 1250 -91 836 529 
Q 422 1150 422 2328 
Q 422 3509 836 4129 
Q 1250 4750 2034 4750 
z
" transform="scale(0.015625)"/>
       </defs>
       <use xlink:href="#DejaVuSans-55"/>
       <use xlink:href="#DejaVuSans-73" x="73.193359"/>
       <use xlink:href="#DejaVuSans-75" x="125.292969"/>
       <use xlink:href="#DejaVuSans-e1" x="188.671875"/>
       <use xlink:href="#DejaVuSans-72" x="249.951172"/>
       <use xlink:href="#DejaVuSans-69" x="291.064453"/>
       <use xlink:href="#DejaVuSans-6f" x="318.847656"/>
       <use xlink:href="#DejaVuSans-20" x="380.029297"/>
       <use xlink:href="#DejaVuSans-30" x="411.816406"/>
       <use xlink:href="#DejaVuSans-31" x="475.439453"/>
      </g>
     </g>
    </g>
    <g id="ytick_2">
     <g id="line2d_8">
      <g>
       <use xlink:href="#m416ecd32e3" x="81.782813" y="185.781091" style="stroke: #000000; stroke-width: 0.8"/>
      </g>
     </g>
     <g id="text_9">
      <!-- Usuário 02 -->
      <g transform="translate(20.878125 189.58031) scale(0.1 -0.1)">
       <use xlink:href="#DejaVuSans-55"/>
       <use xlink:href="#DejaVuSans-73" x="73.193359"/>
       <use xlink:href="#DejaVuSans-75" x="125.292969"/>
       <use xlink:href="#DejaVuSans-e1" x="188.671875"/>
       <use xlink:href="#DejaVuSans-72" x="249.951172"/>
       <use xlink:href="#DejaVuSans-69" x="291.064453"/>
       <use xlink:href="#DejaVuSans-6f" x="318.847656"/>
       <use xlink:href="#DejaVuSans-20" x="380.029297"/>
       <use xlink:href="#DejaVuSans-30" x="411.816406"/>
       <use xlink:href="#DejaVuSans-32" x="475.439453"/>
      </g>
     </g>
    </g>
    <g id="ytick_3">
     <g id="line2d_9">
      <g>
       <use xlink:href="#m416ecd32e3" x="81.782813" y="142.190967" style="stroke: #000000; stroke-width: 0.8"/>
      </g>
     </g>
     <g id="text_10">
      <!-- Usuário 03 -->
      <g transform="translate(20.878125 145.990186) scale(0.1 -0.1)">
       <use xlink:href="#DejaVuSans-55"/>
       <use xlink:href="#DejaVuSans-73" x="73.193359"/>
       <use xlink:href="#DejaVuSans-75" x="125.292969"/>
       <use xlink:href="#DejaVuSans-e1" x="188.671875"/>
       <use xlink:href="#DejaVuSans-72" x="249.951172"/>
       <use xlink:href="#DejaVuSans-69" x="291.064453"/>
       <use xlink:href="#DejaVuSans-6f" x="318.847656"/>
       <use xlink:href="#DejaVuSans-20" x="380.029297"/>
       <use xlink:href="#DejaVuSans-30" x="411.816406"/>
       <use xlink:href="#DejaVuSans-33" x="475.439453"/>
      </g>
     </g>
    </g>
    <g id="ytick_4">
     <g id="line2d_10">
      <g>
       <use xlink:href="#m416ecd32e3" x="81.782813" y="98.600843" style="stroke: #000000; stroke-width: 0.8"/>
      </g>
     </g>
     <g id="text_11">
      <!-- Usuário 04 -->
      <g transform="translate(20.878125 102.400061) scale(0.1 -0.1)">
       <use xlink:href="#DejaVuSans-55"/>
       <use xlink:href="#DejaVuSans-73" x="73.193359"/>
       <use xlink:href="#DejaVuSans-75" x="125.292969"/>
       <use xlink:href="#DejaVuSans-e1" x="188.671875"/>
       <use xlink:href="#DejaVuSans-72" x="249.951172"/>
       <use xlink:href="#DejaVuSans-69" x="291.064453"/>
       <use xlink:href="#DejaVuSans-6f" x="318.847656"/>
       <use xlink:href="#DejaVuSans-20" x="380.029297"/>
       <use xlink:href="#DejaVuSans-30" x="411.816406"/>
       <use xlink:href="#DejaVuSans-34" x="475.439453"/>
      </g>
     </g>
    </g>
    <g id="ytick_5">
     <g id="line2d_11">
      <g>
       <use xlink:href="#m416ecd32e3" x="81.782813" y="55.010718" style="stroke: #000000; stroke-width: 0.8"/>
      </g>
     </g>
     <g id="text_12">
      <!-- Usuário 05 -->
      <g transform="translate(20.878125 58.809937) scale(0.1 -0.1)">
       <use xlink:href="#DejaVuSans-55"/>
       <use xlink:href="#DejaVuSans-73" x="73.193359"/>
       <use xlink:href="#DejaVuSans-75" x="125.292969"/>
       <use xlink:href="#DejaVuSans-e1" x="188.671875"/>
       <use xlink:href="#DejaVuSans-72" x="249.951172"/>
       <use xlink:href="#DejaVuSans-69" x="291.064453"/>
       <use xlink:href="#DejaVuSans-6f" x="318.847656"/>
       <use xlink:href="#DejaVuSans-20" x="380.029297"/>
       <use xlink:href="#DejaVuSans-30" x="411.816406"/>
       <use xlink:href="#DejaVuSans-35" x="475.439453"/>
      </g>
     </g>
    </g>
    <g id="text_13">
     <!-- Usuários -->
     <g transform="translate(14.798438 158.34767) rotate(-90) scale(0.1 -0.1)">
      <use xlink:href="#DejaVuSans-55"/>
      <use xlink:href="#DejaVuSans-73" x="73.193359"/>
      <use xlink:href="#DejaVuSans-75" x="125.292969"/>
      <use xlink:href="#DejaVuSans-e1" x="188.671875"/>
      <use xlink:href="#DejaVuSans-72" x="249.951172"/>
      <use xlink:href="#DejaVuSans-69" x="291.064453"/>
      <use xlink:href="#DejaVuSans-6f" x="318.847656"/>
      <use xlink:href="#DejaVuSans-73" x="380.029297"/>
     </g>
    </g>
   </g>
   <g id="patch_33">
    <path d="M 81.782813 251.166278 
L 81.782813 22.318125 
" style="fill: none; stroke: #000000; stroke-width: 0.8; stroke-linejoin: miter; stroke-linecap: square"/>
   </g>
   <g id="patch_34">
    <path d="M 400.082813 251.166278 
L 400.082813 22.318125 
" style="fill: none; stroke: #000000; stroke-width: 0.8; stroke-linejoin: miter; stroke-linecap: square"/>
   </g>
   <g id="patch_35">
    <path d="M 81.782813 251.166278 
L 400.082813 251.166278 
" style="fill: none; stroke: #000000; stroke-width: 0.8; stroke-linejoin: miter; stroke-linecap: square"/>
   </g>
   <g id="patch_36">
    <path d="M 81.782813 22.318125 
L 400.082813 22.318125 
" style="fill: none; stroke: #000000; stroke-width: 0.8; stroke-linejoin: miter; stroke-linecap: square"/>
   </g>
   <g id="text_14">
    <!-- Tarefa 1 -->
    <g transform="translate(217.044375 16.318125) scale(0.12 -0.12)">
     <defs>
      <path id="DejaVuSans-54" d="M -19 4666 
L 3928 4666 
L 3928 4134 
L 2272 4134 
L 2272 0 
L 1638 0 
L 1638 4134 
L -19 4134 
L -19 4666 
z
" transform="scale(0.015625)"/>
     </defs>
     <use xlink:href="#DejaVuSans-54"/>
     <use xlink:href="#DejaVuSans-61" x="44.583984"/>
     <use xlink:href="#DejaVuSans-72" x="105.863281"/>
     <use xlink:href="#DejaVuSans-65" x="144.726562"/>
     <use xlink:href="#DejaVuSans-66" x="206.25"/>
     <use xlink:href="#DejaVuSans-61" x="241.455078"/>
     <use xlink:href="#DejaVuSans-20" x="302.734375"/>
     <use xlink:href="#DejaVuSans-31" x="334.521484"/>
    </g>
   </g>
  </g>
  <g id="axes_2">
   <g id="patch_37">
    <path d="M 414.382813 251.166278 
L 732.682812 251.166278 
L 732.682812 22.318125 
L 414.382813 22.318125 
z
" style="fill: #ffffff"/>
   </g>
   <g id="patch_38">
    <path d="M 428.850994 251.166278 
L 459.854241 251.166278 
L 459.854241 207.576153 
L 428.850994 207.576153 
z
" clip-path="url(#p5d8ab0da62)" style="fill: #ac89cf"/>
   </g>
   <g id="patch_39">
    <path d="M 480.523072 251.166278 
L 511.526319 251.166278 
L 511.526319 207.576153 
L 480.523072 207.576153 
z
" clip-path="url(#p5d8ab0da62)" style="fill: #ac89cf"/>
   </g>
   <g id="patch_40">
    <path d="M 532.19515 251.166278 
L 563.198397 251.166278 
L 563.198397 207.576153 
L 532.19515 207.576153 
z
" clip-path="url(#p5d8ab0da62)" style="fill: #ac89cf"/>
   </g>
   <g id="patch_41">
    <path d="M 583.867228 251.166278 
L 614.870475 251.166278 
L 614.870475 207.576153 
L 583.867228 207.576153 
z
" clip-path="url(#p5d8ab0da62)" style="fill: #ac89cf"/>
   </g>
   <g id="patch_42">
    <path d="M 635.539306 251.166278 
L 666.542553 251.166278 
L 666.542553 207.576153 
L 635.539306 207.576153 
z
" clip-path="url(#p5d8ab0da62)" style="fill: #ac89cf"/>
   </g>
   <g id="patch_43">
    <path d="M 687.211384 251.166278 
L 718.214631 251.166278 
L 718.214631 207.576153 
L 687.211384 207.576153 
z
" clip-path="url(#p5d8ab0da62)" style="fill: #ac89cf"/>
   </g>
   <g id="patch_44">
    <path d="M 428.850994 207.576153 
L 459.854241 207.576153 
L 459.854241 163.986029 
L 428.850994 163.986029 
z
" clip-path="url(#p5d8ab0da62)" style="fill: #ac89cf"/>
   </g>
   <g id="patch_45">
    <path d="M 480.523072 207.576153 
L 511.526319 207.576153 
L 511.526319 163.986029 
L 480.523072 163.986029 
z
" clip-path="url(#p5d8ab0da62)" style="fill: #ac89cf"/>
   </g>
   <g id="patch_46">
    <path d="M 532.19515 207.576153 
L 563.198397 207.576153 
L 563.198397 163.986029 
L 532.19515 163.986029 
z
" clip-path="url(#p5d8ab0da62)" style="fill: #ac89cf"/>
   </g>
   <g id="patch_47">
    <path d="M 583.867228 207.576153 
L 614.870475 207.576153 
L 614.870475 163.986029 
L 583.867228 163.986029 
z
" clip-path="url(#p5d8ab0da62)" style="fill: #ac89cf"/>
   </g>
   <g id="patch_48">
    <path d="M 635.539306 207.576153 
L 666.542553 207.576153 
L 666.542553 163.986029 
L 635.539306 163.986029 
z
" clip-path="url(#p5d8ab0da62)" style="fill: #ac89cf"/>
   </g>
   <g id="patch_49">
    <path d="M 687.211384 207.576153 
L 718.214631 207.576153 
L 718.214631 163.986029 
L 687.211384 163.986029 
z
" clip-path="url(#p5d8ab0da62)" style="fill: #ac89cf"/>
   </g>
   <g id="patch_50">
    <path d="M 428.850994 163.986029 
L 459.854241 163.986029 
L 459.854241 120.395905 
L 428.850994 120.395905 
z
" clip-path="url(#p5d8ab0da62)" style="fill: #ac89cf"/>
   </g>
   <g id="patch_51">
    <path d="M 480.523072 163.986029 
L 511.526319 163.986029 
L 511.526319 120.395905 
L 480.523072 120.395905 
z
" clip-path="url(#p5d8ab0da62)" style="fill: #ac89cf"/>
   </g>
   <g id="patch_52">
    <path d="M 532.19515 163.986029 
L 563.198397 163.986029 
L 563.198397 120.395905 
L 532.19515 120.395905 
z
" clip-path="url(#p5d8ab0da62)" style="fill: #ac89cf"/>
   </g>
   <g id="patch_53">
    <path d="M 583.867228 163.986029 
L 614.870475 163.986029 
L 614.870475 120.395905 
L 583.867228 120.395905 
z
" clip-path="url(#p5d8ab0da62)" style="fill: #5c20a6"/>
   </g>
   <g id="patch_54">
    <path d="M 635.539306 163.986029 
L 666.542553 163.986029 
L 666.542553 120.395905 
L 635.539306 120.395905 
z
" clip-path="url(#p5d8ab0da62)" style="fill: #ac89cf"/>
   </g>
   <g id="patch_55">
    <path d="M 687.211384 163.986029 
L 718.214631 163.986029 
L 718.214631 120.395905 
L 687.211384 120.395905 
z
" clip-path="url(#p5d8ab0da62)" style="fill: #ac89cf"/>
   </g>
   <g id="patch_56">
    <path d="M 428.850994 120.395905 
L 459.854241 120.395905 
L 459.854241 76.80578 
L 428.850994 76.80578 
z
" clip-path="url(#p5d8ab0da62)" style="fill: #ac89cf"/>
   </g>
   <g id="patch_57">
    <path d="M 480.523072 120.395905 
L 511.526319 120.395905 
L 511.526319 76.80578 
L 480.523072 76.80578 
z
" clip-path="url(#p5d8ab0da62)" style="fill: #ac89cf"/>
   </g>
   <g id="patch_58">
    <path d="M 532.19515 120.395905 
L 563.198397 120.395905 
L 563.198397 76.80578 
L 532.19515 76.80578 
z
" clip-path="url(#p5d8ab0da62)" style="fill: #ac89cf"/>
   </g>
   <g id="patch_59">
    <path d="M 583.867228 120.395905 
L 614.870475 120.395905 
L 614.870475 76.80578 
L 583.867228 76.80578 
z
" clip-path="url(#p5d8ab0da62)" style="fill: #5c20a6"/>
   </g>
   <g id="patch_60">
    <path d="M 635.539306 120.395905 
L 666.542553 120.395905 
L 666.542553 76.80578 
L 635.539306 76.80578 
z
" clip-path="url(#p5d8ab0da62)" style="fill: #5c20a6"/>
   </g>
   <g id="patch_61">
    <path d="M 687.211384 120.395905 
L 718.214631 120.395905 
L 718.214631 76.80578 
L 687.211384 76.80578 
z
" clip-path="url(#p5d8ab0da62)" style="fill: #ac89cf"/>
   </g>
   <g id="patch_62">
    <path d="M 428.850994 76.80578 
L 459.854241 76.80578 
L 459.854241 33.215656 
L 428.850994 33.215656 
z
" clip-path="url(#p5d8ab0da62)" style="fill: #ac89cf"/>
   </g>
   <g id="patch_63">
    <path d="M 480.523072 76.80578 
L 511.526319 76.80578 
L 511.526319 33.215656 
L 480.523072 33.215656 
z
" clip-path="url(#p5d8ab0da62)" style="fill: #ac89cf"/>
   </g>
   <g id="patch_64">
    <path d="M 532.19515 76.80578 
L 563.198397 76.80578 
L 563.198397 33.215656 
L 532.19515 33.215656 
z
" clip-path="url(#p5d8ab0da62)" style="fill: #ac89cf"/>
   </g>
   <g id="patch_65">
    <path d="M 583.867228 76.80578 
L 614.870475 76.80578 
L 614.870475 33.215656 
L 583.867228 33.215656 
z
" clip-path="url(#p5d8ab0da62)" style="fill: #ac89cf"/>
   </g>
   <g id="patch_66">
    <path d="M 635.539306 76.80578 
L 666.542553 76.80578 
L 666.542553 33.215656 
L 635.539306 33.215656 
z
" clip-path="url(#p5d8ab0da62)" style="fill: #ac89cf"/>
   </g>
   <g id="patch_67">
    <path d="M 687.211384 76.80578 
L 718.214631 76.80578 
L 718.214631 33.215656 
L 687.211384 33.215656 
z
" clip-path="url(#p5d8ab0da62)" style="fill: #ac89cf"/>
   </g>
   <g id="matplotlib.axis_3">
    <g id="xtick_7">
     <g id="line2d_12">
      <g>
       <use xlink:href="#mb52b0a411f" x="444.352618" y="251.166278" style="stroke: #000000; stroke-width: 0.8"/>
      </g>
     </g>
     <g id="text_15">
      <!-- 2.1 -->
      <g transform="translate(431.636849 274.784392) rotate(-45) scale(0.1 -0.1)">
       <use xlink:href="#DejaVuSans-32"/>
       <use xlink:href="#DejaVuSans-2e" x="63.623047"/>
       <use xlink:href="#DejaVuSans-31" x="95.410156"/>
      </g>
     </g>
    </g>
    <g id="xtick_8">
     <g id="line2d_13">
      <g>
       <use xlink:href="#mb52b0a411f" x="496.024696" y="251.166278" style="stroke: #000000; stroke-width: 0.8"/>
      </g>
     </g>
     <g id="text_16">
      <!-- 2.2 -->
      <g transform="translate(483.308927 274.784392) rotate(-45) scale(0.1 -0.1)">
       <use xlink:href="#DejaVuSans-32"/>
       <use xlink:href="#DejaVuSans-2e" x="63.623047"/>
       <use xlink:href="#DejaVuSans-32" x="95.410156"/>
      </g>
     </g>
    </g>
    <g id="xtick_9">
     <g id="line2d_14">
      <g>
       <use xlink:href="#mb52b0a411f" x="547.696774" y="251.166278" style="stroke: #000000; stroke-width: 0.8"/>
      </g>
     </g>
     <g id="text_17">
      <!-- 2.3 -->
      <g transform="translate(534.981005 274.784392) rotate(-45) scale(0.1 -0.1)">
       <use xlink:href="#DejaVuSans-32"/>
       <use xlink:href="#DejaVuSans-2e" x="63.623047"/>
       <use xlink:href="#DejaVuSans-33" x="95.410156"/>
      </g>
     </g>
    </g>
    <g id="xtick_10">
     <g id="line2d_15">
      <g>
       <use xlink:href="#mb52b0a411f" x="599.368851" y="251.166278" style="stroke: #000000; stroke-width: 0.8"/>
      </g>
     </g>
     <g id="text_18">
      <!-- 2.4 -->
      <g transform="translate(586.653083 274.784392) rotate(-45) scale(0.1 -0.1)">
       <use xlink:href="#DejaVuSans-32"/>
       <use xlink:href="#DejaVuSans-2e" x="63.623047"/>
       <use xlink:href="#DejaVuSans-34" x="95.410156"/>
      </g>
     </g>
    </g>
    <g id="xtick_11">
     <g id="line2d_16">
      <g>
       <use xlink:href="#mb52b0a411f" x="651.040929" y="251.166278" style="stroke: #000000; stroke-width: 0.8"/>
      </g>
     </g>
     <g id="text_19">
      <!-- 2.5 -->
      <g transform="translate(638.325161 274.784392) rotate(-45) scale(0.1 -0.1)">
       <use xlink:href="#DejaVuSans-32"/>
       <use xlink:href="#DejaVuSans-2e" x="63.623047"/>
       <use xlink:href="#DejaVuSans-35" x="95.410156"/>
      </g>
     </g>
    </g>
    <g id="xtick_12">
     <g id="line2d_17">
      <g>
       <use xlink:href="#mb52b0a411f" x="702.713007" y="251.166278" style="stroke: #000000; stroke-width: 0.8"/>
      </g>
     </g>
     <g id="text_20">
      <!-- 2.6 -->
      <g transform="translate(689.997239 274.784392) rotate(-45) scale(0.1 -0.1)">
       <use xlink:href="#DejaVuSans-32"/>
       <use xlink:href="#DejaVuSans-2e" x="63.623047"/>
       <use xlink:href="#DejaVuSans-36" x="95.410156"/>
      </g>
     </g>
    </g>
    <g id="text_21">
     <!-- Subtarefas -->
     <g transform="translate(546.542969 287.85339) scale(0.1 -0.1)">
      <use xlink:href="#DejaVuSans-53"/>
      <use xlink:href="#DejaVuSans-75" x="63.476562"/>
      <use xlink:href="#DejaVuSans-62" x="126.855469"/>
      <use xlink:href="#DejaVuSans-74" x="190.332031"/>
      <use xlink:href="#DejaVuSans-61" x="229.541016"/>
      <use xlink:href="#DejaVuSans-72" x="290.820312"/>
      <use xlink:href="#DejaVuSans-65" x="329.683594"/>
      <use xlink:href="#DejaVuSans-66" x="391.207031"/>
      <use xlink:href="#DejaVuSans-61" x="426.412109"/>
      <use xlink:href="#DejaVuSans-73" x="487.691406"/>
     </g>
    </g>
   </g>
   <g id="matplotlib.axis_4">
    <g id="ytick_6">
     <g id="line2d_18">
      <g>
       <use xlink:href="#m416ecd32e3" x="414.382813" y="229.371215" style="stroke: #000000; stroke-width: 0.8"/>
      </g>
     </g>
    </g>
    <g id="ytick_7">
     <g id="line2d_19">
      <g>
       <use xlink:href="#m416ecd32e3" x="414.382813" y="185.781091" style="stroke: #000000; stroke-width: 0.8"/>
      </g>
     </g>
    </g>
    <g id="ytick_8">
     <g id="line2d_20">
      <g>
       <use xlink:href="#m416ecd32e3" x="414.382813" y="142.190967" style="stroke: #000000; stroke-width: 0.8"/>
      </g>
     </g>
    </g>
    <g id="ytick_9">
     <g id="line2d_21">
      <g>
       <use xlink:href="#m416ecd32e3" x="414.382813" y="98.600843" style="stroke: #000000; stroke-width: 0.8"/>
      </g>
     </g>
    </g>
    <g id="ytick_10">
     <g id="line2d_22">
      <g>
       <use xlink:href="#m416ecd32e3" x="414.382813" y="55.010718" style="stroke: #000000; stroke-width: 0.8"/>
      </g>
     </g>
    </g>
   </g>
   <g id="patch_68">
    <path d="M 414.382813 251.166278 
L 414.382813 22.318125 
" style="fill: none; stroke: #000000; stroke-width: 0.8; stroke-linejoin: miter; stroke-linecap: square"/>
   </g>
   <g id="patch_69">
    <path d="M 732.682812 251.166278 
L 732.682812 22.318125 
" style="fill: none; stroke: #000000; stroke-width: 0.8; stroke-linejoin: miter; stroke-linecap: square"/>
   </g>
   <g id="patch_70">
    <path d="M 414.382813 251.166278 
L 732.682812 251.166278 
" style="fill: none; stroke: #000000; stroke-width: 0.8; stroke-linejoin: miter; stroke-linecap: square"/>
   </g>
   <g id="patch_71">
    <path d="M 414.382813 22.318125 
L 732.682812 22.318125 
" style="fill: none; stroke: #000000; stroke-width: 0.8; stroke-linejoin: miter; stroke-linecap: square"/>
   </g>
   <g id="text_22">
    <!-- Tarefa 2 -->
    <g transform="translate(549.644375 16.318125) scale(0.12 -0.12)">
     <use xlink:href="#DejaVuSans-54"/>
     <use xlink:href="#DejaVuSans-61" x="44.583984"/>
     <use xlink:href="#DejaVuSans-72" x="105.863281"/>
     <use xlink:href="#DejaVuSans-65" x="144.726562"/>
     <use xlink:href="#DejaVuSans-66" x="206.25"/>
     <use xlink:href="#DejaVuSans-61" x="241.455078"/>
     <use xlink:href="#DejaVuSans-20" x="302.734375"/>
     <use xlink:href="#DejaVuSans-32" x="334.521484"/>
    </g>
   </g>
  </g>
  <g id="axes_3">
   <g id="patch_72">
    <path d="M 746.982813 251.166278 
L 1065.282813 251.166278 
L 1065.282813 22.318125 
L 746.982813 22.318125 
z
" style="fill: #ffffff"/>
   </g>
   <g id="patch_73">
    <path d="M 761.450994 251.166278 
L 799.194077 251.166278 
L 799.194077 207.576153 
L 761.450994 207.576153 
z
" clip-path="url(#pf2b06c1c23)" style="fill: #ac89cf"/>
   </g>
   <g id="patch_74">
    <path d="M 824.356133 251.166278 
L 862.099216 251.166278 
L 862.099216 207.576153 
L 824.356133 207.576153 
z
" clip-path="url(#pf2b06c1c23)" style="fill: #ac89cf"/>
   </g>
   <g id="patch_75">
    <path d="M 887.261271 251.166278 
L 925.004354 251.166278 
L 925.004354 207.576153 
L 887.261271 207.576153 
z
" clip-path="url(#pf2b06c1c23)" style="fill: #ac89cf"/>
   </g>
   <g id="patch_76">
    <path d="M 950.166409 251.166278 
L 987.909492 251.166278 
L 987.909492 207.576153 
L 950.166409 207.576153 
z
" clip-path="url(#pf2b06c1c23)" style="fill: #ac89cf"/>
   </g>
   <g id="patch_77">
    <path d="M 1013.071548 251.166278 
L 1050.814631 251.166278 
L 1050.814631 207.576153 
L 1013.071548 207.576153 
z
" clip-path="url(#pf2b06c1c23)" style="fill: #5c20a6"/>
   </g>
   <g id="patch_78">
    <path d="M 761.450994 207.576153 
L 799.194077 207.576153 
L 799.194077 163.986029 
L 761.450994 163.986029 
z
" clip-path="url(#pf2b06c1c23)" style="fill: #ac89cf"/>
   </g>
   <g id="patch_79">
    <path d="M 824.356133 207.576153 
L 862.099216 207.576153 
L 862.099216 163.986029 
L 824.356133 163.986029 
z
" clip-path="url(#pf2b06c1c23)" style="fill: #ac89cf"/>
   </g>
   <g id="patch_80">
    <path d="M 887.261271 207.576153 
L 925.004354 207.576153 
L 925.004354 163.986029 
L 887.261271 163.986029 
z
" clip-path="url(#pf2b06c1c23)" style="fill: #ac89cf"/>
   </g>
   <g id="patch_81">
    <path d="M 950.166409 207.576153 
L 987.909492 207.576153 
L 987.909492 163.986029 
L 950.166409 163.986029 
z
" clip-path="url(#pf2b06c1c23)" style="fill: #ac89cf"/>
   </g>
   <g id="patch_82">
    <path d="M 1013.071548 207.576153 
L 1050.814631 207.576153 
L 1050.814631 163.986029 
L 1013.071548 163.986029 
z
" clip-path="url(#pf2b06c1c23)" style="fill: #5c20a6"/>
   </g>
   <g id="patch_83">
    <path d="M 761.450994 163.986029 
L 799.194077 163.986029 
L 799.194077 120.395905 
L 761.450994 120.395905 
z
" clip-path="url(#pf2b06c1c23)" style="fill: #ac89cf"/>
   </g>
   <g id="patch_84">
    <path d="M 824.356133 163.986029 
L 862.099216 163.986029 
L 862.099216 120.395905 
L 824.356133 120.395905 
z
" clip-path="url(#pf2b06c1c23)" style="fill: #ac89cf"/>
   </g>
   <g id="patch_85">
    <path d="M 887.261271 163.986029 
L 925.004354 163.986029 
L 925.004354 120.395905 
L 887.261271 120.395905 
z
" clip-path="url(#pf2b06c1c23)" style="fill: #ac89cf"/>
   </g>
   <g id="patch_86">
    <path d="M 950.166409 163.986029 
L 987.909492 163.986029 
L 987.909492 120.395905 
L 950.166409 120.395905 
z
" clip-path="url(#pf2b06c1c23)" style="fill: #ac89cf"/>
   </g>
   <g id="patch_87">
    <path d="M 1013.071548 163.986029 
L 1050.814631 163.986029 
L 1050.814631 120.395905 
L 1013.071548 120.395905 
z
" clip-path="url(#pf2b06c1c23)" style="fill: #5c20a6"/>
   </g>
   <g id="patch_88">
    <path d="M 761.450994 120.395905 
L 799.194077 120.395905 
L 799.194077 76.80578 
L 761.450994 76.80578 
z
" clip-path="url(#pf2b06c1c23)" style="fill: #ac89cf"/>
   </g>
   <g id="patch_89">
    <path d="M 824.356133 120.395905 
L 862.099216 120.395905 
L 862.099216 76.80578 
L 824.356133 76.80578 
z
" clip-path="url(#pf2b06c1c23)" style="fill: #ac89cf"/>
   </g>
   <g id="patch_90">
    <path d="M 887.261271 120.395905 
L 925.004354 120.395905 
L 925.004354 76.80578 
L 887.261271 76.80578 
z
" clip-path="url(#pf2b06c1c23)" style="fill: #ac89cf"/>
   </g>
   <g id="patch_91">
    <path d="M 950.166409 120.395905 
L 987.909492 120.395905 
L 987.909492 76.80578 
L 950.166409 76.80578 
z
" clip-path="url(#pf2b06c1c23)" style="fill: #5c20a6"/>
   </g>
   <g id="patch_92">
    <path d="M 1013.071548 120.395905 
L 1050.814631 120.395905 
L 1050.814631 76.80578 
L 1013.071548 76.80578 
z
" clip-path="url(#pf2b06c1c23)" style="fill: #5c20a6"/>
   </g>
   <g id="patch_93">
    <path d="M 761.450994 76.80578 
L 799.194077 76.80578 
L 799.194077 33.215656 
L 761.450994 33.215656 
z
" clip-path="url(#pf2b06c1c23)" style="fill: #ac89cf"/>
   </g>
   <g id="patch_94">
    <path d="M 824.356133 76.80578 
L 862.099216 76.80578 
L 862.099216 33.215656 
L 824.356133 33.215656 
z
" clip-path="url(#pf2b06c1c23)" style="fill: #ac89cf"/>
   </g>
   <g id="patch_95">
    <path d="M 887.261271 76.80578 
L 925.004354 76.80578 
L 925.004354 33.215656 
L 887.261271 33.215656 
z
" clip-path="url(#pf2b06c1c23)" style="fill: #ac89cf"/>
   </g>
   <g id="patch_96">
    <path d="M 950.166409 76.80578 
L 987.909492 76.80578 
L 987.909492 33.215656 
L 950.166409 33.215656 
z
" clip-path="url(#pf2b06c1c23)" style="fill: #ac89cf"/>
   </g>
   <g id="patch_97">
    <path d="M 1013.071548 76.80578 
L 1050.814631 76.80578 
L 1050.814631 33.215656 
L 1013.071548 33.215656 
z
" clip-path="url(#pf2b06c1c23)" style="fill: #5c20a6"/>
   </g>
   <g id="matplotlib.axis_5">
    <g id="xtick_13">
     <g id="line2d_23">
      <g>
       <use xlink:href="#mb52b0a411f" x="780.322536" y="251.166278" style="stroke: #000000; stroke-width: 0.8"/>
      </g>
     </g>
     <g id="text_23">
      <!-- 3.1 -->
      <g transform="translate(767.606767 274.784392) rotate(-45) scale(0.1 -0.1)">
       <use xlink:href="#DejaVuSans-33"/>
       <use xlink:href="#DejaVuSans-2e" x="63.623047"/>
       <use xlink:href="#DejaVuSans-31" x="95.410156"/>
      </g>
     </g>
    </g>
    <g id="xtick_14">
     <g id="line2d_24">
      <g>
       <use xlink:href="#mb52b0a411f" x="843.227674" y="251.166278" style="stroke: #000000; stroke-width: 0.8"/>
      </g>
     </g>
     <g id="text_24">
      <!-- 3.2 -->
      <g transform="translate(830.511905 274.784392) rotate(-45) scale(0.1 -0.1)">
       <use xlink:href="#DejaVuSans-33"/>
       <use xlink:href="#DejaVuSans-2e" x="63.623047"/>
       <use xlink:href="#DejaVuSans-32" x="95.410156"/>
      </g>
     </g>
    </g>
    <g id="xtick_15">
     <g id="line2d_25">
      <g>
       <use xlink:href="#mb52b0a411f" x="906.132812" y="251.166278" style="stroke: #000000; stroke-width: 0.8"/>
      </g>
     </g>
     <g id="text_25">
      <!-- 3.3 -->
      <g transform="translate(893.417044 274.784392) rotate(-45) scale(0.1 -0.1)">
       <use xlink:href="#DejaVuSans-33"/>
       <use xlink:href="#DejaVuSans-2e" x="63.623047"/>
       <use xlink:href="#DejaVuSans-33" x="95.410156"/>
      </g>
     </g>
    </g>
    <g id="xtick_16">
     <g id="line2d_26">
      <g>
       <use xlink:href="#mb52b0a411f" x="969.037951" y="251.166278" style="stroke: #000000; stroke-width: 0.8"/>
      </g>
     </g>
     <g id="text_26">
      <!-- 3.4 -->
      <g transform="translate(956.322182 274.784392) rotate(-45) scale(0.1 -0.1)">
       <use xlink:href="#DejaVuSans-33"/>
       <use xlink:href="#DejaVuSans-2e" x="63.623047"/>
       <use xlink:href="#DejaVuSans-34" x="95.410156"/>
      </g>
     </g>
    </g>
    <g id="xtick_17">
     <g id="line2d_27">
      <g>
       <use xlink:href="#mb52b0a411f" x="1031.943089" y="251.166278" style="stroke: #000000; stroke-width: 0.8"/>
      </g>
     </g>
     <g id="text_27">
      <!-- 3.5 -->
      <g transform="translate(1019.227321 274.784392) rotate(-45) scale(0.1 -0.1)">
       <use xlink:href="#DejaVuSans-33"/>
       <use xlink:href="#DejaVuSans-2e" x="63.623047"/>
       <use xlink:href="#DejaVuSans-35" x="95.410156"/>
      </g>
     </g>
    </g>
    <g id="text_28">
     <!-- Subtarefas -->
     <g transform="translate(879.142969 287.85339) scale(0.1 -0.1)">
      <use xlink:href="#DejaVuSans-53"/>
      <use xlink:href="#DejaVuSans-75" x="63.476562"/>
      <use xlink:href="#DejaVuSans-62" x="126.855469"/>
      <use xlink:href="#DejaVuSans-74" x="190.332031"/>
      <use xlink:href="#DejaVuSans-61" x="229.541016"/>
      <use xlink:href="#DejaVuSans-72" x="290.820312"/>
      <use xlink:href="#DejaVuSans-65" x="329.683594"/>
      <use xlink:href="#DejaVuSans-66" x="391.207031"/>
      <use xlink:href="#DejaVuSans-61" x="426.412109"/>
      <use xlink:href="#DejaVuSans-73" x="487.691406"/>
     </g>
    </g>
   </g>
   <g id="matplotlib.axis_6">
    <g id="ytick_11">
     <g id="line2d_28">
      <g>
       <use xlink:href="#m416ecd32e3" x="746.982813" y="229.371215" style="stroke: #000000; stroke-width: 0.8"/>
      </g>
     </g>
    </g>
    <g id="ytick_12">
     <g id="line2d_29">
      <g>
       <use xlink:href="#m416ecd32e3" x="746.982813" y="185.781091" style="stroke: #000000; stroke-width: 0.8"/>
      </g>
     </g>
    </g>
    <g id="ytick_13">
     <g id="line2d_30">
      <g>
       <use xlink:href="#m416ecd32e3" x="746.982813" y="142.190967" style="stroke: #000000; stroke-width: 0.8"/>
      </g>
     </g>
    </g>
    <g id="ytick_14">
     <g id="line2d_31">
      <g>
       <use xlink:href="#m416ecd32e3" x="746.982813" y="98.600843" style="stroke: #000000; stroke-width: 0.8"/>
      </g>
     </g>
    </g>
    <g id="ytick_15">
     <g id="line2d_32">
      <g>
       <use xlink:href="#m416ecd32e3" x="746.982813" y="55.010718" style="stroke: #000000; stroke-width: 0.8"/>
      </g>
     </g>
    </g>
   </g>
   <g id="patch_98">
    <path d="M 746.982813 251.166278 
L 746.982813 22.318125 
" style="fill: none; stroke: #000000; stroke-width: 0.8; stroke-linejoin: miter; stroke-linecap: square"/>
   </g>
   <g id="patch_99">
    <path d="M 1065.282813 251.166278 
L 1065.282813 22.318125 
" style="fill: none; stroke: #000000; stroke-width: 0.8; stroke-linejoin: miter; stroke-linecap: square"/>
   </g>
   <g id="patch_100">
    <path d="M 746.982813 251.166278 
L 1065.282813 251.166278 
" style="fill: none; stroke: #000000; stroke-width: 0.8; stroke-linejoin: miter; stroke-linecap: square"/>
   </g>
   <g id="patch_101">
    <path d="M 746.982813 22.318125 
L 1065.282813 22.318125 
" style="fill: none; stroke: #000000; stroke-width: 0.8; stroke-linejoin: miter; stroke-linecap: square"/>
   </g>
   <g id="text_29">
    <!-- Tarefa 3 -->
    <g transform="translate(882.244375 16.318125) scale(0.12 -0.12)">
     <use xlink:href="#DejaVuSans-54"/>
     <use xlink:href="#DejaVuSans-61" x="44.583984"/>
     <use xlink:href="#DejaVuSans-72" x="105.863281"/>
     <use xlink:href="#DejaVuSans-65" x="144.726562"/>
     <use xlink:href="#DejaVuSans-66" x="206.25"/>
     <use xlink:href="#DejaVuSans-61" x="241.455078"/>
     <use xlink:href="#DejaVuSans-20" x="302.734375"/>
     <use xlink:href="#DejaVuSans-33" x="334.521484"/>
    </g>
   </g>
  </g>
  <g id="legend_1">
   <g id="patch_102">
    <path d="M 476.785156 350.438125 
L 595.380469 350.438125 
Q 597.380469 350.438125 597.380469 348.438125 
L 597.380469 320.081875 
Q 597.380469 318.081875 595.380469 318.081875 
L 476.785156 318.081875 
Q 474.785156 318.081875 474.785156 320.081875 
L 474.785156 348.438125 
Q 474.785156 350.438125 476.785156 350.438125 
z
" style="fill: #ffffff; opacity: 0.8; stroke: #cccccc; stroke-linejoin: miter"/>
   </g>
   <g id="text_30">
    <!-- Conclusão -->
    <g transform="translate(510.328125 329.680313) scale(0.1 -0.1)">
     <defs>
      <path id="DejaVuSans-43" d="M 4122 4306 
L 4122 3641 
Q 3803 3938 3442 4084 
Q 3081 4231 2675 4231 
Q 1875 4231 1450 3742 
Q 1025 3253 1025 2328 
Q 1025 1406 1450 917 
Q 1875 428 2675 428 
Q 3081 428 3442 575 
Q 3803 722 4122 1019 
L 4122 359 
Q 3791 134 3420 21 
Q 3050 -91 2638 -91 
Q 1578 -91 968 557 
Q 359 1206 359 2328 
Q 359 3453 968 4101 
Q 1578 4750 2638 4750 
Q 3056 4750 3426 4639 
Q 3797 4528 4122 4306 
z
" transform="scale(0.015625)"/>
      <path id="DejaVuSans-6e" d="M 3513 2113 
L 3513 0 
L 2938 0 
L 2938 2094 
Q 2938 2591 2744 2837 
Q 2550 3084 2163 3084 
Q 1697 3084 1428 2787 
Q 1159 2491 1159 1978 
L 1159 0 
L 581 0 
L 581 3500 
L 1159 3500 
L 1159 2956 
Q 1366 3272 1645 3428 
Q 1925 3584 2291 3584 
Q 2894 3584 3203 3211 
Q 3513 2838 3513 2113 
z
" transform="scale(0.015625)"/>
      <path id="DejaVuSans-63" d="M 3122 3366 
L 3122 2828 
Q 2878 2963 2633 3030 
Q 2388 3097 2138 3097 
Q 1578 3097 1268 2742 
Q 959 2388 959 1747 
Q 959 1106 1268 751 
Q 1578 397 2138 397 
Q 2388 397 2633 464 
Q 2878 531 3122 666 
L 3122 134 
Q 2881 22 2623 -34 
Q 2366 -91 2075 -91 
Q 1284 -91 818 406 
Q 353 903 353 1747 
Q 353 2603 823 3093 
Q 1294 3584 2113 3584 
Q 2378 3584 2631 3529 
Q 2884 3475 3122 3366 
z
" transform="scale(0.015625)"/>
      <path id="DejaVuSans-6c" d="M 603 4863 
L 1178 4863 
L 1178 0 
L 603 0 
L 603 4863 
z
" transform="scale(0.015625)"/>
      <path id="DejaVuSans-e3" d="M 2194 1759 
Q 1497 1759 1228 1600 
Q 959 1441 959 1056 
Q 959 750 1161 570 
Q 1363 391 1709 391 
Q 2188 391 2477 730 
Q 2766 1069 2766 1631 
L 2766 1759 
L 2194 1759 
z
M 3341 1997 
L 3341 0 
L 2766 0 
L 2766 531 
Q 2569 213 2275 61 
Q 1981 -91 1556 -91 
Q 1019 -91 701 211 
Q 384 513 384 1019 
Q 384 1609 779 1909 
Q 1175 2209 1959 2209 
L 2766 2209 
L 2766 2266 
Q 2766 2663 2505 2880 
Q 2244 3097 1772 3097 
Q 1472 3097 1187 3025 
Q 903 2953 641 2809 
L 641 3341 
Q 956 3463 1253 3523 
Q 1550 3584 1831 3584 
Q 2591 3584 2966 3190 
Q 3341 2797 3341 1997 
z
M 1844 4281 
L 1665 4453 
Q 1597 4516 1545 4545 
Q 1494 4575 1453 4575 
Q 1334 4575 1278 4461 
Q 1222 4347 1215 4091 
L 825 4091 
Q 831 4513 990 4742 
Q 1150 4972 1434 4972 
Q 1553 4972 1653 4928 
Q 1753 4884 1869 4781 
L 2047 4609 
Q 2115 4547 2167 4517 
Q 2219 4488 2259 4488 
Q 2378 4488 2434 4602 
Q 2490 4716 2497 4972 
L 2887 4972 
Q 2881 4550 2721 4320 
Q 2562 4091 2278 4091 
Q 2159 4091 2059 4134 
Q 1959 4178 1844 4281 
z
" transform="scale(0.015625)"/>
     </defs>
     <use xlink:href="#DejaVuSans-43"/>
     <use xlink:href="#DejaVuSans-6f" x="69.824219"/>
     <use xlink:href="#DejaVuSans-6e" x="131.005859"/>
     <use xlink:href="#DejaVuSans-63" x="194.384766"/>
     <use xlink:href="#DejaVuSans-6c" x="249.365234"/>
     <use xlink:href="#DejaVuSans-75" x="277.148438"/>
     <use xlink:href="#DejaVuSans-73" x="340.527344"/>
     <use xlink:href="#DejaVuSans-e3" x="392.626953"/>
     <use xlink:href="#DejaVuSans-6f" x="453.90625"/>
    </g>
   </g>
   <g id="patch_103">
    <path d="M 478.785156 344.358437 
L 498.785156 344.358437 
L 498.785156 337.358437 
L 478.785156 337.358437 
z
" style="fill: #ac89cf"/>
   </g>
   <g id="text_31">
    <!-- Sim -->
    <g transform="translate(506.785156 344.358437) scale(0.1 -0.1)">
     <defs>
      <path id="DejaVuSans-6d" d="M 3328 2828 
Q 3544 3216 3844 3400 
Q 4144 3584 4550 3584 
Q 5097 3584 5394 3201 
Q 5691 2819 5691 2113 
L 5691 0 
L 5113 0 
L 5113 2094 
Q 5113 2597 4934 2840 
Q 4756 3084 4391 3084 
Q 3944 3084 3684 2787 
Q 3425 2491 3425 1978 
L 3425 0 
L 2847 0 
L 2847 2094 
Q 2847 2600 2669 2842 
Q 2491 3084 2119 3084 
Q 1678 3084 1418 2786 
Q 1159 2488 1159 1978 
L 1159 0 
L 581 0 
L 581 3500 
L 1159 3500 
L 1159 2956 
Q 1356 3278 1631 3431 
Q 1906 3584 2284 3584 
Q 2666 3584 2933 3390 
Q 3200 3197 3328 2828 
z
" transform="scale(0.015625)"/>
     </defs>
     <use xlink:href="#DejaVuSans-53"/>
     <use xlink:href="#DejaVuSans-69" x="63.476562"/>
     <use xlink:href="#DejaVuSans-6d" x="91.259766"/>
    </g>
   </g>
   <g id="patch_104">
    <path d="M 545.652344 344.358437 
L 565.652344 344.358437 
L 565.652344 337.358437 
L 545.652344 337.358437 
z
" style="fill: #ac89cf"/>
   </g>
   <g id="text_32">
    <!-- Não -->
    <g transform="translate(573.652344 344.358437) scale(0.1 -0.1)">
     <defs>
      <path id="DejaVuSans-4e" d="M 628 4666 
L 1478 4666 
L 3547 763 
L 3547 4666 
L 4159 4666 
L 4159 0 
L 3309 0 
L 1241 3903 
L 1241 0 
L 628 0 
L 628 4666 
z
" transform="scale(0.015625)"/>
     </defs>
     <use xlink:href="#DejaVuSans-4e"/>
     <use xlink:href="#DejaVuSans-e3" x="74.804688"/>
     <use xlink:href="#DejaVuSans-6f" x="136.083984"/>
    </g>
   </g>
  </g>
 </g>
 <defs>
  <clipPath id="pa049f4832b">
   <rect x="81.782813" y="22.318125" width="318.3" height="228.848153"/>
  </clipPath>
  <clipPath id="p5d8ab0da62">
   <rect x="414.382813" y="22.318125" width="318.3" height="228.848153"/>
  </clipPath>
  <clipPath id="pf2b06c1c23">
   <rect x="746.982813" y="22.318125" width="318.3" height="228.848153"/>
  </clipPath>
 </defs>
</svg>
